<svg width="64" height="64" viewBox="0 0 64 64" fill="none" xmlns="http://www.w3.org/2000/svg">
<g id="Icons">
<mask id="mask0_6057_19886" style="mask-type:alpha" maskUnits="userSpaceOnUse" x="0" y="0" width="64" height="64">
<rect id="Bounding box" width="64" height="64" fill="#D9D9D9"/>
</mask>
<g mask="url(#mask0_6057_19886)">
<path id="devices" d="M5.33301 53.3333V45.3333H10.6663V16C10.6663 14.5333 11.1886 13.2777 12.233 12.2333C13.2775 11.1888 14.533 10.6666 15.9997 10.6666H55.9997V16H15.9997V45.3333H31.9997V53.3333H5.33301ZM39.9997 53.3333C39.2441 53.3333 38.6108 53.0777 38.0997 52.5666C37.5886 52.0555 37.333 51.4222 37.333 50.6666V24C37.333 23.2444 37.5886 22.6111 38.0997 22.1C38.6108 21.5888 39.2441 21.3333 39.9997 21.3333H55.9997C56.7552 21.3333 57.3886 21.5888 57.8997 22.1C58.4108 22.6111 58.6663 23.2444 58.6663 24V50.6666C58.6663 51.4222 58.4108 52.0555 57.8997 52.5666C57.3886 53.0777 56.7552 53.3333 55.9997 53.3333H39.9997ZM42.6663 45.3333H53.333V26.6666H42.6663V45.3333Z" fill="#142B02"/>
</g>
</g>
</svg>
