<svg width="64" height="64" viewBox="0 0 64 64" fill="none" xmlns="http://www.w3.org/2000/svg">
<g id="Icons">
<mask id="mask0_6057_20198" style="mask-type:alpha" maskUnits="userSpaceOnUse" x="0" y="0" width="64" height="64">
<rect id="Bounding box" width="64" height="64" fill="#D9D9D9"/>
</mask>
<g mask="url(#mask0_6057_20198)">
<path id="beenhere" d="M31.9998 61.3334L12.7998 46.9334C12.1332 46.4445 11.6109 45.8223 11.2332 45.0667C10.8554 44.3112 10.6665 43.5112 10.6665 42.6667V10.6667C10.6665 9.20004 11.1887 7.94449 12.2332 6.90004C13.2776 5.8556 14.5332 5.33337 15.9998 5.33337H47.9998C49.4665 5.33337 50.7221 5.8556 51.7665 6.90004C52.811 7.94449 53.3332 9.20004 53.3332 10.6667V42.6667C53.3332 43.5112 53.1443 44.3112 52.7665 45.0667C52.3887 45.8223 51.8665 46.4445 51.1998 46.9334L31.9998 61.3334ZM29.1998 40L44.2665 24.9334L40.5332 21.0667L29.1998 32.4L23.5998 26.8L19.7332 30.5334L29.1998 40Z" fill="#142B02"/>
</g>
</g>
</svg>
