<svg width="64" height="64" viewBox="0 0 64 64" fill="none" xmlns="http://www.w3.org/2000/svg">
<g id="Icons">
<mask id="mask0_6057_4954" style="mask-type:alpha" maskUnits="userSpaceOnUse" x="0" y="0" width="64" height="64">
<rect id="Bounding box" width="64" height="64" fill="#D9D9D9"/>
</mask>
<g mask="url(#mask0_6057_4954)">
<path id="target" d="M32.0002 58.6667C28.3113 58.6667 24.8446 57.9667 21.6002 56.5667C18.3557 55.1667 15.5335 53.2667 13.1335 50.8667C10.7335 48.4667 8.8335 45.6445 7.4335 42.4C6.0335 39.1556 5.3335 35.6889 5.3335 32C5.3335 28.3111 6.0335 24.8445 7.4335 21.6C8.8335 18.3556 10.7335 15.5334 13.1335 13.1334C15.5335 10.7334 18.3557 8.83337 21.6002 7.43337C24.8446 6.03337 28.3113 5.33337 32.0002 5.33337C35.6891 5.33337 39.1557 6.03337 42.4002 7.43337C45.6446 8.83337 48.4668 10.7334 50.8668 13.1334C53.2668 15.5334 55.1668 18.3556 56.5668 21.6C57.9668 24.8445 58.6668 28.3111 58.6668 32C58.6668 35.6889 57.9668 39.1556 56.5668 42.4C55.1668 45.6445 53.2668 48.4667 50.8668 50.8667C48.4668 53.2667 45.6446 55.1667 42.4002 56.5667C39.1557 57.9667 35.6891 58.6667 32.0002 58.6667ZM32.0002 53.3334C37.9557 53.3334 43.0002 51.2667 47.1335 47.1334C51.2668 43 53.3335 37.9556 53.3335 32C53.3335 26.0445 51.2668 21 47.1335 16.8667C43.0002 12.7334 37.9557 10.6667 32.0002 10.6667C26.0446 10.6667 21.0002 12.7334 16.8668 16.8667C12.7335 21 10.6668 26.0445 10.6668 32C10.6668 37.9556 12.7335 43 16.8668 47.1334C21.0002 51.2667 26.0446 53.3334 32.0002 53.3334ZM32.0002 48C27.5557 48 23.7779 46.4445 20.6668 43.3334C17.5557 40.2223 16.0002 36.4445 16.0002 32C16.0002 27.5556 17.5557 23.7778 20.6668 20.6667C23.7779 17.5556 27.5557 16 32.0002 16C36.4446 16 40.2224 17.5556 43.3335 20.6667C46.4446 23.7778 48.0002 27.5556 48.0002 32C48.0002 36.4445 46.4446 40.2223 43.3335 43.3334C40.2224 46.4445 36.4446 48 32.0002 48ZM32.0002 42.6667C34.9335 42.6667 37.4446 41.6223 39.5335 39.5334C41.6224 37.4445 42.6668 34.9334 42.6668 32C42.6668 29.0667 41.6224 26.5556 39.5335 24.4667C37.4446 22.3778 34.9335 21.3334 32.0002 21.3334C29.0668 21.3334 26.5557 22.3778 24.4668 24.4667C22.3779 26.5556 21.3335 29.0667 21.3335 32C21.3335 34.9334 22.3779 37.4445 24.4668 39.5334C26.5557 41.6223 29.0668 42.6667 32.0002 42.6667ZM32.0002 37.3334C30.5335 37.3334 29.2779 36.8112 28.2335 35.7667C27.1891 34.7223 26.6668 33.4667 26.6668 32C26.6668 30.5334 27.1891 29.2778 28.2335 28.2334C29.2779 27.1889 30.5335 26.6667 32.0002 26.6667C33.4668 26.6667 34.7224 27.1889 35.7668 28.2334C36.8113 29.2778 37.3335 30.5334 37.3335 32C37.3335 33.4667 36.8113 34.7223 35.7668 35.7667C34.7224 36.8112 33.4668 37.3334 32.0002 37.3334Z" fill="#142B02"/>
</g>
</g>
</svg>
