<svg width="64" height="64" viewBox="0 0 64 64" fill="none" xmlns="http://www.w3.org/2000/svg">
<g id="Icons">
<mask id="mask0_6057_2482" style="mask-type:alpha" maskUnits="userSpaceOnUse" x="0" y="0" width="64" height="64">
<rect id="Bounding box" width="64" height="64" fill="#D9D9D9"/>
</mask>
<g mask="url(#mask0_6057_2482)">
<path id="difference" d="M33.3335 29.3333H38.6668V24H44.0002V18.6666H38.6668V13.3333H33.3335V18.6666H28.0002V24H33.3335V29.3333ZM28.0002 40H44.0002V34.6666H28.0002V40ZM21.3335 50.6666C19.8668 50.6666 18.6113 50.1444 17.5668 49.1C16.5224 48.0555 16.0002 46.8 16.0002 45.3333V7.99996C16.0002 6.53329 16.5224 5.27774 17.5668 4.23329C18.6113 3.18885 19.8668 2.66663 21.3335 2.66663H40.0002L56.0002 18.6666V45.3333C56.0002 46.8 55.4779 48.0555 54.4335 49.1C53.3891 50.1444 52.1335 50.6666 50.6668 50.6666H21.3335ZM10.6668 61.3333C9.20016 61.3333 7.94461 60.8111 6.90016 59.7666C5.85572 58.7222 5.3335 57.4666 5.3335 56V18.6666H10.6668V56H40.0002V61.3333H10.6668Z" fill="#142B02"/>
</g>
</g>
</svg>
