<svg width="64" height="64" viewBox="0 0 64 64" fill="none" xmlns="http://www.w3.org/2000/svg">
<g id="Icons">
<mask id="mask0_6057_16683" style="mask-type:alpha" maskUnits="userSpaceOnUse" x="0" y="0" width="64" height="64">
<rect id="Bounding box" width="64" height="64" fill="#D9D9D9"/>
</mask>
<g mask="url(#mask0_6057_16683)">
<path id="handshake" d="M32.2663 56C31.5108 56 30.8775 55.7444 30.3663 55.2333C29.8552 54.7222 29.5997 54.0889 29.5997 53.3333C29.5997 53.0222 29.6663 52.7 29.7997 52.3667C29.933 52.0333 30.133 51.7333 30.3997 51.4667L42.733 39.1333L40.7997 37.2L28.533 49.5333C28.2663 49.8 27.9775 50 27.6663 50.1333C27.3552 50.2667 27.0219 50.3333 26.6663 50.3333C25.9108 50.3333 25.2775 50.0778 24.7663 49.5667C24.2552 49.0556 23.9997 48.4222 23.9997 47.6667C23.9997 47.2222 24.0663 46.8556 24.1997 46.5667C24.333 46.2778 24.5108 46.0222 24.733 45.8L37.0663 33.4667L35.1997 31.6L22.8663 43.8667C22.5997 44.1333 22.3108 44.3333 21.9997 44.4667C21.6886 44.6 21.333 44.6667 20.933 44.6667C20.2219 44.6667 19.5997 44.4 19.0663 43.8667C18.533 43.3333 18.2663 42.7111 18.2663 42C18.2663 41.6444 18.333 41.3111 18.4663 41C18.5997 40.6889 18.7997 40.4 19.0663 40.1333L31.3997 27.8L29.4663 25.9333L17.1997 38.2667C16.9775 38.4889 16.7108 38.6667 16.3997 38.8C16.0886 38.9333 15.7108 39 15.2663 39C14.5108 39 13.8775 38.7444 13.3663 38.2333C12.8552 37.7222 12.5997 37.0889 12.5997 36.3333C12.5997 35.9778 12.6663 35.6444 12.7997 35.3333C12.933 35.0222 13.133 34.7333 13.3997 34.4667L28.2663 19.6L38.2663 29.6667C38.7552 30.1556 39.333 30.5444 39.9997 30.8333C40.6663 31.1222 41.333 31.2667 41.9997 31.2667C43.4219 31.2667 44.6663 30.7667 45.733 29.7667C46.7997 28.7667 47.333 27.4889 47.333 25.9333C47.333 25.3111 47.2219 24.6667 46.9997 24C46.7775 23.3333 46.3774 22.7111 45.7997 22.1333L33.8663 10.2C34.6219 9.48889 35.4663 8.94444 36.3997 8.56667C37.333 8.18889 38.2663 8 39.1997 8C40.3552 8 41.4219 8.18889 42.3997 8.56667C43.3775 8.94444 44.2663 9.53333 45.0663 10.3333L56.333 21.6667C57.133 22.4667 57.7219 23.3556 58.0997 24.3333C58.4775 25.3111 58.6663 26.4444 58.6663 27.7333C58.6663 28.6222 58.4663 29.5222 58.0663 30.4333C57.6663 31.3444 57.0886 32.1778 56.333 32.9333L34.133 55.2C33.7775 55.5556 33.4663 55.7778 33.1997 55.8667C32.933 55.9556 32.6219 56 32.2663 56ZM9.39967 34.6667L7.66634 32.9333C6.91079 32.2222 6.33301 31.3778 5.93301 30.4C5.53301 29.4222 5.33301 28.4 5.33301 27.3333C5.33301 26.1778 5.55523 25.1111 5.99967 24.1333C6.44412 23.1556 6.99967 22.3333 7.66634 21.6667L18.933 10.3333C19.6441 9.62222 20.4886 9.05556 21.4663 8.63333C22.4441 8.21111 23.3997 8 24.333 8C25.533 8 26.5997 8.16667 27.533 8.5C28.4663 8.83333 29.3775 9.44444 30.2663 10.3333L43.933 24C44.1997 24.2667 44.3997 24.5556 44.533 24.8667C44.6663 25.1778 44.733 25.5111 44.733 25.8667C44.733 26.5778 44.4663 27.2 43.933 27.7333C43.3997 28.2667 42.7775 28.5333 42.0663 28.5333C41.6663 28.5333 41.333 28.4778 41.0663 28.3667C40.7997 28.2556 40.5108 28.0444 40.1997 27.7333L28.1997 15.8667L9.39967 34.6667Z" fill="#142B02"/>
</g>
</g>
</svg>
